<?xml version="1.0" encoding="UTF-8"?>
<svg width="22px" height="32px" viewBox="0 0 22 32" version="1.1" xmlns="http://www.w3.org/2000/svg" xmlns:xlink="http://www.w3.org/1999/xlink">
    <!-- Generator: Sketch 49.3 (51167) - http://www.bohemiancoding.com/sketch -->
    <title>Mic (active)</title>
    <desc>Created with Sketch.</desc>
    <defs></defs>
    <g id="App" stroke="none" stroke-width="1" fill="none" fill-rule="evenodd" stroke-linecap="round" stroke-linejoin="round">
        <g id="31---hubbub.at~--team---(Left-Convo-w/-collapsed-team)@2x" transform="translate(-572.000000, -523.000000)" stroke="#FFFFFF" stroke-width="2">
            <g id="User-Controls" transform="translate(495.343750, 516.000000)">
                <g id="Mic-w/-Carrot-(active)" transform="translate(77.781250, 8.000000)">
                    <g id="Mic-(active)">
                        <path d="M9.76283176,2.97043948e-16 C7.45203329,-2.97043948e-16 5.578761,1.79681608 5.578761,4.01330105 L5.578761,14.7154372 C5.578761,16.9319221 7.45203329,18.7287382 9.76283176,18.7287382 C12.0736302,18.7287382 13.9469025,16.9319221 13.9469025,14.7154372 L13.9469025,4.01330105 C13.9469025,1.79681608 12.0736302,2.97043948e-16 9.76283176,2.97043948e-16 Z" id="Shape" fill="#FFFFFF"></path>
                        <path d="M19.5256635,12.0399031 L19.5256635,14.7154372 C19.5256634,19.8872354 15.1546948,24.0798061 9.76283176,24.0798061 C4.37096872,24.0798061 8.03450196e-08,19.8872354 -1.77635684e-15,14.7154372 L-1.77635684e-15,12.0399031" id="Shape"></path>
                        <path d="M9.76283176,24.0798063 L9.76283176,29.4308743" id="Shape"></path>
                        <path d="M4.18407075,29.4308743 L15.3415928,29.4308743" id="Shape"></path>
                    </g>
                </g>
            </g>
        </g>
    </g>
</svg>